<svg version="1.2" xmlns="http://www.w3.org/2000/svg" viewBox="0 0 1000 1000" width="1000" height="1000"><defs><linearGradient id="P" gradientUnits="userSpaceOnUse"/><linearGradient id="g1" x2="1" href="#P" gradientTransform="matrix(-482.073,-834.975,834.975,-482.073,741.805,918.256)"><stop stop-color="#f043cf"/><stop offset=".38" stop-color="#f88297"/><stop offset="1" stop-color="#ffc160"/></linearGradient><linearGradient id="g2" x2="1" href="#P" gradientTransform="matrix(-51.307,-88.867,125.149,-72.255,523.236,884.141)"><stop stop-color="#ee4ecf"/><stop offset=".48" stop-color="#ffc160"/><stop offset="1" stop-color="#ffc160"/></linearGradient><linearGradient id="g3" x2="1" href="#P" gradientTransform="matrix(-202.505,-350.749,383.701,-221.53,599.066,670.644)"><stop stop-color="#ee4dcf"/><stop offset="1" stop-color="#ffc160"/></linearGradient></defs><style>.a{fill:#121212;stroke:url(#g1);paint-order:stroke fill markers;stroke-linecap:round;stroke-linejoin:round;stroke-width:90}.b{fill:url(#g2)}.c{fill:url(#g3)}</style><path fill-rule="evenodd" class="a" d="m144.9 83.3h711.8c34 0 61.6 27.5 61.6 61.6v711.8c0 34-27.6 61.6-61.6 61.6h-711.8c-34.1 0-61.6-27.6-61.6-61.6v-711.8c0-34.1 27.5-61.6 61.6-61.6z"/><path fill-rule="evenodd" class="b" d="m341 864.2h-1.8c-0.6 0-1.2-0.3-1.5-0.7l-18.1-29.3c-1.5 0.2-3.2 0.3-4.7 0.3h-14.5v28.5c0 0.6-0.6 1.2-1.3 1.2h-0.9c-0.8 0-1.4-0.6-1.4-1.2v-66.4c0-0.7 0.6-1.3 1.4-1.3h16.7c14.9 0 23.6 7.6 23.6 19.6 0 9.4-5.4 16.1-15.1 18.6l18.3 29.4c0.4 0.6 0 1.3-0.7 1.3zm-26.1-33.3c13.7 0 20.2-6.7 20.2-16 0-9.4-6.5-16.1-20.2-16.1h-14.5v32.1zm82.4 8.3c0 1-0.8 1.8-1.8 1.8h-42.6c0.9 11.5 10.1 21 21.9 21 7.4 0 12.6-3 16.5-7.3 0.4-0.5 1.1-0.6 1.7-0.2l0.9 0.6c0.7 0.4 0.8 1.4 0.3 1.9-4.9 5.6-11.4 8.4-19.4 8.4-15 0-25.4-11.7-25.4-26.1 0-14.3 9.8-26.2 24.3-26.2 13.5 0 23.6 10.9 23.6 26.1zm-3.8-1.7c-0.6-11.9-8.8-20.9-19.8-20.9-11.6 0-20 9.5-20.8 20.9zm-28.6-38.4h19c0.7 0 1.2 0.5 1.2 1.3v0.9c0 0.7-0.5 1.3-1.2 1.3h-19c-0.8 0-1.4-0.6-1.4-1.3v-0.9c0-0.8 0.6-1.3 1.4-1.3zm99 30.7c0 19.7-14.3 34.4-34 34.4h-18.4c-0.7 0-1.3-0.6-1.3-1.2v-66.4c0-0.7 0.6-1.3 1.3-1.3h18.4c19.7 0 34 14.8 34 34.5zm-3.6 0c0-17.3-12.6-31-30.4-31h-16.3v61.9h16.3c17.8 0 30.4-13.7 30.4-30.9zm60.3 9.4c0 1-0.8 1.8-1.8 1.8h-42.5c0.9 11.5 10 21 21.9 21 7.3 0 12.6-3 16.5-7.3 0.4-0.5 1.1-0.6 1.7-0.2l0.9 0.6c0.7 0.4 0.8 1.4 0.3 1.9-5 5.6-11.5 8.4-19.4 8.4-15 0-25.5-11.7-25.5-26.1 0-14.3 9.9-26.2 24.4-26.2 13.5 0 23.5 10.9 23.5 26.1zm-3.7-1.7c-0.6-11.9-8.8-20.9-19.8-20.9-11.7 0-20 9.5-20.8 20.9zm45.7 13.5c0 7.1-5.2 14.4-16.8 14.4-8.7 0-14.4-5-16.3-10.3-0.3-0.7 0.2-1.5 1-1.7l0.9-0.2c0.6-0.1 1.2 0.2 1.4 0.9 1.5 3.9 6.1 7.9 13 7.9 9.2 0 13.2-5.3 13.2-11 0-6.9-4.8-8.2-12.6-10.1-7.4-1.8-15.7-4-15.7-14.1 0-7.8 6.5-13.7 14.8-13.7 6.6 0 11.9 3.5 14.1 9.2 0.3 0.8-0.2 1.5-0.8 1.7l-0.9 0.3c-0.6 0.1-1.3-0.2-1.6-0.7-1.7-4.5-5.6-7-10.8-7-6.4 0-11.3 4.4-11.3 10.2 0 6.8 4.9 8.7 13 10.6 7.2 1.7 15.4 3.6 15.4 13.6zm13.2 12v-47.3c0-0.8 0.6-1.4 1.3-1.4h0.9c0.7 0 1.2 0.6 1.2 1.4v47.3c0 0.6-0.5 1.2-1.2 1.2h-0.9c-0.7 0-1.3-0.6-1.3-1.2zm4.5-62.7c0 1.6-1.3 2.9-2.8 2.9-1.6 0-2.8-1.3-2.8-2.9 0-1.6 1.2-2.9 2.8-2.9 1.5 0 2.8 1.3 2.8 2.9zm61.2 15.4v43.3c0 12.7-8.7 25.1-24.8 25.1-8.4 0-15.5-2.7-20.5-7.9-0.6-0.6-0.4-1.6 0.3-2l0.7-0.5c0.6-0.4 1.3-0.3 1.6 0.2 4.4 4.4 10.5 6.7 17.9 6.7 14.7 0 21.3-11.3 21.3-21.6v-9.2c-3.9 7.8-11.7 13.1-21.4 13.1-14.1 0-24.9-10.9-24.9-25 0-14.1 10.8-24.8 24.9-24.8 9.7 0 17.5 5.1 21.4 13v-10.4c0-0.8 0.6-1.4 1.2-1.4h0.9c0.8 0 1.4 0.6 1.4 1.4zm-3.5 22.2c0-12.1-9.3-21.3-21.4-21.3-12.2 0-21.5 9.2-21.5 21.3 0 12.3 9.3 21.4 21.5 21.4 12.1 0 21.4-9.1 21.4-21.4zm60.4-4v29.1c0 0.6-0.6 1.2-1.4 1.2h-0.9c-0.7 0-1.3-0.6-1.3-1.2v-29.1c0-7.9-4.9-17.3-15.7-17.3-11.1 0-17.3 9.8-17.3 18.1v28.3c0 0.6-0.6 1.2-1.4 1.2h-0.9c-0.7 0-1.2-0.6-1.2-1.2v-47.3c0-0.8 0.5-1.4 1.2-1.4h0.9c0.8 0 1.4 0.6 1.4 1.4v8.3c3.1-6.1 9-10.9 17.3-10.9 13 0 19.3 11.4 19.3 20.8z"/><path fill-rule="evenodd" class="c" d="m477.1 664.7h-29.8c-9.2 0-17.3-4.4-21.1-11.8l-72.1-121.7c-4.8 0.5-9.7 0.5-14.6 0.5h-62.9v119.7c0 7.4-6.5 13.3-14 13.3h-25.5c-8.1 0-14.6-5.9-14.6-13.3v-318.2c0-7.4 6.5-13.3 14.6-13.3h102.4c86.7 0 136 46.3 136 105.9 0 41.4-23.8 76.9-68.3 94.1l80.2 128.6c4.4 7.4-1 16.2-10.3 16.2zm-137.6-177.8c52 0 80.7-24.1 80.7-61.1 0-36.9-28.7-61.1-80.7-61.1h-62.9v122.2zm433.6 55.2c0 9.3-7.8 17.2-17.2 17.2h-182.8c7.4 40.9 37.5 69 86.7 69 22.7 0 43.9-7.9 58.7-21.2 4.4-3.9 10.8-4.4 15.7-1l14.8 9.4c7.4 4.4 8.4 14.3 3 20.2-22.7 22.6-54.7 34.9-92.2 34.9-82.7 0-133.9-58.6-133.9-130.5 0-72.4 52.7-131 126.1-131 63.5 0 123.6 50.2 121.1 133zm-46.8-21.7c-5.9-41.9-32-69-74.3-69-42.9 0-72 27.6-78.9 69zm-134.9-190.2h116.7c4.9 0 8.9 4 8.9 8.9v17.3c0 4.9-4 8.8-8.9 8.8h-116.7c-5 0-8.9-3.9-8.9-8.8v-17.3c0-4.9 3.9-8.9 8.9-8.9z"/></svg>